<svg xmlns="http://www.w3.org/2000/svg" width="143.440625px" height="72.8px" viewBox="178.2796875 38.6 143.440625 72.8" style="background: rgba(0, 0, 0, 0);" preserveAspectRatio="xMidYMid"><defs><filter id="editing-extrusion" x="-100%" y="-100%" width="300%" height="300%"><feFlood result="color1" flood-color="#1f5f95"></feFlood><feConvolveMatrix order="1,1" divisor="1" kernelMatrix="1" in="SourceAlpha" result="extrude"></feConvolveMatrix><feComposite in="color1" in2="extrude" result="comp-extrude" operator="in"></feComposite><feOffset dx="0.5" dy="0.5" in="comp-extrude" result="offset-extrude"></feOffset><feMerge><feMergeNode in="offset-extrude"></feMergeNode><feMergeNode in="SourceGraphic"></feMergeNode></feMerge></filter></defs><g filter="url(#editing-extrusion)"><g transform="translate(204.19501376152039, 87.17999839782715)"><path d="M17.77 0L1.28 0L1.28-1.56L13.55-20.64L4.45-20.64L3.23-16.03L1.64-16.36L1.67-22.41L17.28-22.41L17.28-20.77L5.09-1.77L14.98-1.77L16.16-6.27L17.77-5.95L17.77 0ZM22.41-20.64L21.34-16.03L19.75-16.36L19.75-22.41L38.53-22.41L38.53-16.36L36.94-16.03L35.88-20.64L30.80-20.64L30.80-2.05L33.83-1.44L33.52 0L24.55 0L24.55-1.13L27.59-2.05L27.59-20.64L22.41-20.64ZM53.47-8.58L42.11-8.58L42.11-8.58Q42.11-6.97 42.54-5.73L42.54-5.73L42.54-5.73Q42.97-4.48 43.73-3.60L43.73-3.60L43.73-3.60Q44.50-2.72 45.54-2.26L45.54-2.26L45.54-2.26Q46.58-1.80 47.80-1.80L47.80-1.80L47.80-1.80Q50.05-1.80 52.50-3.36L52.50-3.36L53.20-2.14L53.20-2.14Q51.64-0.92 49.98-0.32L49.98-0.32L49.98-0.32Q48.31 0.28 46.72 0.28L46.72 0.28L46.72 0.28Q45.11 0.28 43.70-0.29L43.70-0.29L43.70-0.29Q42.30-0.86 41.23-1.97L41.23-1.97L41.23-1.97Q40.16-3.08 39.53-4.69L39.53-4.69L39.53-4.69Q38.91-6.30 38.91-8.39L38.91-8.39L38.91-8.39Q38.91-10.50 39.59-12.10L39.59-12.10L39.59-12.10Q40.28-13.70 41.38-14.77L41.38-14.77L41.38-14.77Q42.48-15.84 43.86-16.37L43.86-16.37L43.86-16.37Q45.23-16.89 46.61-16.89L46.61-16.89L46.61-16.89Q48.77-16.89 50.09-16.16L50.09-16.16L50.09-16.16Q51.42-15.42 52.17-14.24L52.17-14.24L52.17-14.24Q52.92-13.06 53.20-11.57L53.20-11.57L53.20-11.57Q53.47-10.08 53.47-8.58L53.47-8.58ZM42.20-10.30L50.27-10.30L50.27-10.30Q50.27-11.55 49.95-12.48L49.95-12.48L49.95-12.48Q49.63-13.41 49.11-14L49.11-14L49.11-14Q48.59-14.59 47.91-14.88L47.91-14.88L47.91-14.88Q47.22-15.17 46.52-15.17L46.52-15.17L46.52-15.17Q45.75-15.17 45-14.85L45-14.85L45-14.85Q44.25-14.53 43.64-13.91L43.64-13.91L43.64-13.91Q43.03-13.28 42.63-12.38L42.63-12.38L42.63-12.38Q42.23-11.48 42.20-10.30L42.20-10.30ZM68-10.84L67.11-14.63L67.11-14.63Q65.73-15.17 64.61-15.17L64.61-15.17L64.61-15.17Q63.39-15.17 62.40-14.66L62.40-14.66L62.40-14.66Q61.41-14.14 60.70-13.27L60.70-13.27L60.70-13.27Q60-12.39 59.60-11.17L59.60-11.17L59.60-11.17Q59.20-9.95 59.20-8.55L59.20-8.55L59.20-8.55Q59.20-7.27 59.52-6.05L59.52-6.05L59.52-6.05Q59.84-4.83 60.52-3.87L60.52-3.87L60.52-3.87Q61.19-2.91 62.21-2.34L62.21-2.34L62.21-2.34Q63.23-1.77 64.64-1.77L64.64-1.77L64.64-1.77Q65.73-1.77 67.02-2.18L67.02-2.18L67.02-2.18Q68.31-2.59 69.31-3.33L69.31-3.33L70.02-2.11L70.02-2.11Q68.73-0.89 67.20-0.27L67.20-0.27L67.20-0.27Q65.66 0.36 64.03 0.36L64.03 0.36L64.03 0.36Q62.41 0.36 60.95-0.22L60.95-0.22L60.95-0.22Q59.48-0.80 58.38-1.91L58.38-1.91L58.38-1.91Q57.28-3.02 56.64-4.63L56.64-4.63L56.64-4.63Q56-6.23 56-8.31L56-8.31L56-8.31Q56-10.38 56.72-11.97L56.72-11.97L56.72-11.97Q57.44-13.56 58.63-14.67L58.63-14.67L58.63-14.67Q59.81-15.78 61.34-16.35L61.34-16.35L61.34-16.35Q62.88-16.92 64.52-16.92L64.52-16.92L64.52-16.92Q65.83-16.92 67.10-16.55L67.10-16.55L67.10-16.55Q68.38-16.19 69.59-15.42L69.59-15.42L69.59-11.17L68-10.84ZM77.38-24L77.38-14.23L77.38-14.23Q77.91-14.91 78.59-15.41L78.59-15.41L78.59-15.41Q79.28-15.91 80.02-16.24L80.02-16.24L80.02-16.24Q80.77-16.58 81.50-16.75L81.50-16.75L81.50-16.75Q82.23-16.92 82.91-16.92L82.91-16.92L82.91-16.92Q85.20-16.92 86.47-15.52L86.47-15.52L86.47-15.52Q87.73-14.11 87.73-11.05L87.73-11.05L87.77-1.98L90.33-1.44L90 0L82.42 0L82.42-0.95L84.89-1.92L84.89-10.41L84.89-10.41Q84.89-11.58 84.70-12.35L84.70-12.35L84.70-12.35Q84.50-13.13 84.12-13.55L84.12-13.55L84.12-13.55Q83.73-13.98 83.16-14.14L83.16-14.14L83.16-14.14Q82.58-14.30 81.81-14.30L81.81-14.30L81.81-14.30Q81.17-14.30 80.52-14.19L80.52-14.19L80.52-14.19Q79.86-14.08 79.27-13.85L79.27-13.85L79.27-13.85Q78.67-13.63 78.18-13.34L78.18-13.34L78.18-13.34Q77.69-13.06 77.38-12.67L77.38-12.67L77.38-1.98L79.77-1.53L79.45 0L71.67 0L71.67-0.95L74.48-1.92L74.48-21.41L71.83-21.92L71.67-23.23L77.38-24Z" fill="#0e27a5"></path></g></g><style>text {
  font-size: 64px;
  font-family: Arial Black;
  dominant-baseline: central;
  text-anchor: middle;
}</style></svg>